# xmcd
#
# Track frame offsets:
#	150
#	14575
#	27756
#	40359
#	55086
#	67773
#	80533
#	94588
#	111966
#	135172
#	145683
#	155108
#	166614
#	178909
#
# Disc length: 2522 seconds
#
# Revision: 1
# Processed by: cddbd v1.5.2PL0 Copyright (c) Steve Scherf et al.
# Submitted via: audiograbber 1.83.01
#
DISCID=ad09d80e
DTITLE=Various Artist - All Time Greatest Blues Songs CD 2
DYEAR=2012
DGENRE=Blues
TTITLE0=John Lee Hooker - Boogie Chillun
TTITLE1=Howlin Wolf - Forty Four Blues
TTITLE2=Juke - Juke
TTITLE3=T Bone Walker - T Bone Blues
TTITLE4=Muddy Waters - I Can't Be Satisfied
TTITLE5=Robert Johnson - Cross Road Blues
TTITLE6=Little Walter - I'm Ready
TTITLE7=John Lee Hooker - Blues Before Sunrise
TTITLE8=BB King - Everyday I Have The Blues
TTITLE9=Canned Heat - Rollin and Tumblin Part 1
TTITLE10=Canned Heat - Rollin and Tumblin Part 2
TTITLE11=Robert Johnson - Me And The Devil Blues
TTITLE12=Howlin' Wolf - How Many More Years
TTITLE13=Junior Wells - Messin' With The Kid
EXTD=
EXTT0=
EXTT1=
EXTT2=
EXTT3=
EXTT4=
EXTT5=
EXTT6=
EXTT7=
EXTT8=
EXTT9=
EXTT10=
EXTT11=
EXTT12=
EXTT13=
PLAYORDER=
